<svg xmlns="http://www.w3.org/2000/svg" viewBox="0 0 200 200">
  <defs>
    <linearGradient id="linearGradient" gradientTransform="rotate(30 0.5 0.5)">
      <stop offset="42%" stop-color="#243447"/>
      <stop offset="62%" stop-color="#6B7C86"/>
      <stop offset="72%" stop-color="#243447"/>
    </linearGradient>
  </defs>
  <path fill="url(#linearGradient)" d="
    M 0.0 100.0
    L 50.0 13.3975
    L 73.094 13.3975
    L 100.0 60.0
    L 126.906 13.3975
    L 150.0 13.3975
    L 176.906 60.0
    L 148.0385 110.0
    L 63.5085 110.0
    L 46.188 140.0
    L 61.547 166.6025
    L 88.453 120.0
    L 111.547 120.0
    L 138.453 166.6025
    L 176.906 100.0
    L 176.906 60.0
    L 200.0 100.0
    L 150.0 186.6025
    L 126.906 186.6025
    L 100.0 140.0
    L 73.094 186.6025
    L 50.0 186.6025
    L 23.094 140.0
    L 51.9615 90.0
    L 136.4915 90.0
    L 153.812 60.0
    L 138.453 33.3975
    L 111.547 80.0
    L 88.453 80.0
    L 61.547 33.3975
    L 23.094 100.0
    L 23.094 140.0
    L 0.0 100.0
    Z"/>
</svg>